<svg width="92" height="92" viewBox="0 0 92 92" fill="none" xmlns="http://www.w3.org/2000/svg">
<circle cx="46" cy="46" r="46" fill="white"/>
<g clip-path="url(#clip0_201_2)">
<path d="M80.6068 28.0002C83.4134 33.3852 85 39.5073 85 46C85 67.5391 67.5391 85 46 85C36.2164 85 27.2742 81.3974 20.4277 75.4466C24.3164 66.3307 31.2226 57.6817 39.4906 49.9918C46.5214 43.4533 54.6479 38.0197 63.0874 33.4754C63.3485 33.3351 63.6348 33.2472 63.9299 33.2173C64.2249 33.1875 64.5228 33.2157 64.807 33.3011C65.091 33.3863 65.3553 33.5268 65.5852 33.7143C65.8149 33.9017 66.0054 34.1325 66.1459 34.3936C66.2865 34.6548 66.3742 34.9411 66.404 35.236C66.434 35.5311 66.4056 35.8291 66.3203 36.1131C66.2351 36.397 66.0947 36.6616 65.9073 36.8913C65.7198 37.1211 65.4889 37.3116 65.2277 37.452C57.3105 41.7163 48.4872 47.6513 40.9041 54.7031C34.6575 60.513 29.3398 66.9991 26.0164 73.846H28.0512C37.8801 73.846 47.0873 71.1714 54.9806 66.5113C56.5233 65.5992 56.3517 63.406 54.809 62.6399L51.5592 61.0218C53.8244 60.8261 56.4044 60.462 58.6547 60.1007C60.6566 59.7801 62.6539 59.4324 64.6424 59.038C64.7842 59.0095 64.9148 58.9405 65.0185 58.8393C73.3099 50.7808 78.9751 40.0319 80.6068 28.0002ZM46 7C53.3146 7 60.1588 9.01362 66.0086 12.5168C61.5197 13.0576 57.2025 14.1592 53.1291 15.7505C53.0358 15.787 52.9508 15.8417 52.8789 15.9114C52.8072 15.9812 52.7499 16.0646 52.7107 16.1568L52.7091 16.1613L52.7031 16.1764L52.6807 16.2291L52.5948 16.4323L52.2892 17.1774C52.0333 17.805 51.6872 18.6735 51.3229 19.6352C50.7954 21.0052 50.3195 22.3945 49.896 23.8001L47.5976 20.6016C47.2706 20.1424 46.782 19.8242 46.2297 19.7111C45.6776 19.5979 45.103 19.6983 44.6219 19.9921C29.6484 29.2234 19.6086 45.693 19.3828 64.5243C18.1017 66.5785 16.9391 68.6784 15.9147 70.8184C10.3458 64.0753 7 55.4285 7 46C7 24.4609 24.4609 7 46 7Z" fill="#422AD5"/>
</g>
<defs>
<clipPath id="clip0_201_2">
<rect width="78" height="78" fill="white" transform="translate(7 7)"/>
</clipPath>
</defs>
</svg>
